<?xml version="1.0" encoding="UTF-8" standalone="no"?>
<svg width="32" height="32" viewBox="0 0 32 32" fill="none" xmlns="http://www.w3.org/2000/svg">
  <!-- Gradient Definition -->
  <defs>
    <linearGradient id="gradient" x1="0%" y1="0%" x2="100%" y2="100%">
      <stop offset="0%" style="stop-color:#38BDF8"/>
      <stop offset="100%" style="stop-color:#818CF8"/>
    </linearGradient>
  </defs>

  <!-- Background with slight rounded corners -->
  <rect width="32" height="32" rx="8" fill="#1E293B"/>

  <!-- Abstract Code/Circuit Pattern -->
  <path d="M8 12l4-4m12 4l-4-4M8 20l4 4m12-4l-4 4" stroke="url(#gradient)" stroke-width="2" stroke-linecap="round"/>

  <!-- Central P Design -->
  <path d="M13 10h6c1.1 0 2 .9 2 2v4c0 1.1-.9 2-2 2h-4v4h-2V10z" fill="url(#gradient)"/>
  
  <!-- Neural Network Nodes -->
  <circle cx="8" cy="16" r="2" fill="#38BDF8" opacity="0.8"/>
  <circle cx="24" cy="16" r="2" fill="#818CF8" opacity="0.8"/>
  <circle cx="16" cy="8" r="2" fill="#38BDF8" opacity="0.8"/>
  <circle cx="16" cy="24" r="2" fill="#818CF8" opacity="0.8"/>
  
  <!-- Connecting Lines -->
  <path d="M9.5 14.5l5-5m8 5l-5-5M9.5 17.5l5 5m8-5l-5 5" stroke="url(#gradient)" stroke-width="1" opacity="0.3"/>
</svg>
